<svg width="142" height="31" viewBox="0 0 142 31" fill="none" xmlns="http://www.w3.org/2000/svg">
<path d="M6.74556 2.4668L7.98693 15.7082C8.19383 17.2599 8.09038 18.8116 8.19383 20.4668L8.29728 20.4668C8.81452 18.8116 9.22832 17.2599 9.84901 15.7082L15.2283 2.57024L20.918 2.57025L8.91796 30.1909L4.46968 30.1909L0.952449 2.4668L6.74556 2.4668Z" fill="#818181"/>
<path d="M21.3317 5.98229C21.642 4.12022 23.2972 2.77539 25.2627 2.77539C27.0213 2.77539 28.1592 4.32712 27.9523 6.08574C27.642 7.84436 25.8834 9.29263 24.1248 9.29263C22.1592 9.39608 21.0213 7.84436 21.3317 5.98229ZM26.2972 11.5685L23.4006 30.0857L18.2282 30.0857L21.1248 11.5685L26.2972 11.5685Z" fill="#818181"/>
<path d="M34.3645 27.9149C33.8473 28.639 33.33 29.2597 32.7093 29.6735C32.0886 30.0873 31.3645 30.3976 30.5369 30.3976C26.399 30.3976 26.6059 23.7769 27.0197 20.7769C27.5369 17.57 29.1921 11.1562 33.5369 11.1562C35.2955 11.1562 36.2266 12.2942 36.5369 13.7425L36.6404 13.7425L37.0541 11.4666L42.2266 11.4666L39.33 29.9838L34.1576 29.9838L34.3645 27.9149ZM35.8128 20.6735C36.0197 19.639 36.5369 15.708 34.7783 15.708C33.0197 15.708 32.2955 19.639 32.1921 20.6735C31.9852 21.8114 31.4679 25.639 33.33 25.639C34.9852 25.639 35.7093 21.708 35.8128 20.6735Z" fill="#818181"/>
<path d="M46.3642 0.5L51.5366 0.5L49.3642 13.8448L49.4676 13.8448C49.8814 13.1207 50.5021 12.3966 51.1228 11.9828C51.7435 11.4655 52.5711 11.2586 53.3987 11.2586C57.7435 11.2586 57.3297 17.6724 56.8125 20.8793C56.2952 23.8793 54.5366 30.5 50.2952 30.5C48.64 30.5 47.709 29.4655 47.2952 28.0172L47.1918 28.0172L46.8814 30.0862L41.709 30.0862L46.3642 0.5ZM51.64 20.6724C51.8469 19.6379 52.2607 15.7069 50.6056 15.7069C48.8469 15.7069 48.1228 19.6379 48.0194 20.6724C47.9159 21.7069 47.3987 25.6379 49.0538 25.6379C50.8125 25.6379 51.4331 21.9138 51.64 20.6724Z" fill="#818181"/>
<path d="M60.6421 5.98229C60.9525 4.12022 62.6077 2.77539 64.4697 2.77539C66.2283 2.77539 67.3663 4.32712 67.1594 6.08574C66.849 7.84436 65.0904 9.29263 63.3318 9.29263C61.5732 9.39608 60.3318 7.84436 60.6421 5.98229ZM65.6077 11.5685L62.7111 30.0857L57.5387 30.0857L60.4352 11.5685L65.6077 11.5685Z" fill="#818181"/>
<path d="M80.7109 11.5703L72.7454 25.7427L77.8144 25.7427L77.0902 29.9841L64.6765 29.9841L72.7454 15.8117L67.4696 15.8117L68.1937 11.5703L80.7109 11.5703Z" fill="#818181"/>
<path d="M95.3984 11.5703L87.4329 25.7427L92.5019 25.7427L91.7777 29.9841L79.364 29.9841L87.4329 15.8117L82.1571 15.8117L82.8812 11.5703L95.3984 11.5703Z" fill="#818181"/>
<path d="M102.642 11.5703L100.987 21.7082C100.883 22.7427 99.9522 25.6393 101.711 25.6393C103.056 25.6393 103.263 23.7772 103.469 22.8462L105.331 11.5703L110.504 11.5703L108.642 23.3634C107.918 27.6048 105.538 30.3979 100.883 30.3979C94.9867 30.3979 95.297 26.0531 95.8143 22.6393L97.5729 11.5703L102.642 11.5703Z" fill="#818181"/>
<path d="M117.744 14.3631C118.779 12.6045 120.641 11.1562 122.606 11.1562C126.434 11.1563 125.399 15.3976 124.986 18.0873L123.124 29.9838L117.951 29.9838L119.606 19.8459C119.71 18.9149 120.537 16.3287 118.882 16.3287C117.744 16.3287 117.33 17.57 117.124 18.5011L115.261 29.9838L110.089 29.9838L112.986 11.4666L118.158 11.4666L117.744 14.3631Z" fill="#818181"/>
<path d="M140.813 20.7769C140.088 25.5356 137.813 30.3976 132.226 30.3976C126.744 30.3976 125.916 25.5356 126.744 20.7769C127.468 16.0183 129.744 11.1562 135.33 11.1562C140.813 11.1562 141.537 16.1218 140.813 20.7769ZM131.916 20.7769C131.709 21.8114 131.192 25.7425 132.951 25.7425C134.709 25.7425 135.433 21.8114 135.64 20.7769C135.847 19.7425 136.364 15.8114 134.502 15.8114C132.744 15.8114 132.02 19.7425 131.916 20.7769Z" fill="#818181"/>
</svg>
