<svg width="112" height="31" viewBox="0 0 112 31" fill="none" xmlns="http://www.w3.org/2000/svg">
<path d="M40.0391 1.44504H41.8686L43.8977 4.71015L45.9269 1.44504H47.7564V9.16925H46.068V4.12536L43.8977 7.42457H43.854L41.7081 4.15947V9.16925H40.0439V1.44504H40.0391ZM49.119 5.32906V5.3047C49.119 3.11171 50.8463 1.30859 53.2258 1.30859C55.6052 1.30859 57.3132 3.08247 57.3132 5.28033V5.3047C57.3132 7.50257 55.5858 9.3008 53.2064 9.3008C50.8269 9.3008 49.119 7.52204 49.119 5.32906ZM55.542 5.32906V5.3047C55.542 3.97916 54.5737 2.87779 53.2064 2.87779C51.839 2.87779 50.895 3.95966 50.895 5.2852V5.30957C50.895 6.6351 51.8634 7.73644 53.2307 7.73644C54.5931 7.73159 55.542 6.64973 55.542 5.32906ZM58.6611 1.44504H61.6682C64.0914 1.44504 65.7651 3.11171 65.7651 5.2852V5.30957C65.7651 7.48304 64.0914 9.16925 61.6682 9.16925H58.6611V1.44504ZM61.6682 7.63412C63.055 7.63412 63.9942 6.69846 63.9942 5.32906V5.3047C63.9942 3.9353 63.0599 2.97526 61.6682 2.97526H60.3593V7.62927H61.6682V7.63412ZM66.9721 5.85538V1.44504H68.6706V5.81152C68.6706 7.06884 69.2981 7.72183 70.3347 7.72183C71.3707 7.72183 71.9988 7.09322 71.9988 5.87V1.44504H73.6967V5.80177C73.6967 8.14094 72.3881 9.28619 70.3149 9.28619C68.2372 9.28619 66.9721 8.13124 66.9721 5.85538ZM75.3658 1.44504H77.0644V7.62436H80.9083V9.16925H75.3658V1.44504ZM84.9079 1.38656H86.4698L89.7743 9.16433H88.003L87.2971 7.43433H84.0372L83.3313 9.16433H81.604L84.9079 1.38656ZM86.6887 5.93335L85.6624 3.42848L84.6353 5.93335H86.6887ZM90.7324 1.44504H94.2559C95.2337 1.44504 95.9978 1.72282 96.5033 2.22964C96.9316 2.6585 97.1653 3.26766 97.1653 3.99378V4.01815C97.1653 5.26571 96.4938 6.05031 95.5108 6.41093L97.3944 9.16925H95.4138L93.7593 6.69846H92.4258V9.16925H90.7279V1.44504H90.7324ZM94.1486 5.19261C94.9759 5.19261 95.4476 4.74914 95.4476 4.10099V4.07663C95.4476 3.3505 94.9414 2.97526 94.1142 2.97526H92.4309V5.19261H94.1486Z" fill="#818181"/>
<path d="M40.2344 12.332H40.7647V18.9841H44.9495V19.4714H40.2344V12.332Z" fill="#818181"/>
<path d="M46.2656 12.332H46.796V19.4714H46.2656V12.332Z" fill="#818181"/>
<path d="M48.4531 15.9244V15.9049C48.4531 13.9751 49.8496 12.2109 51.9761 12.2109C53.139 12.2109 53.8689 12.557 54.5842 13.1515L54.2387 13.5511C53.6791 13.0638 53.0271 12.6934 51.9468 12.6934C50.2146 12.6934 49.003 14.1603 49.003 15.8854V15.9049C49.003 17.7519 50.1562 19.1262 52.0588 19.1262C52.9638 19.1262 53.8105 18.751 54.3312 18.3123V16.2607H51.9468V15.7733H54.8373V18.5268C54.1949 19.0969 53.1974 19.5989 52.0345 19.5989C49.7864 19.594 48.4531 17.9322 48.4531 15.9244Z" fill="#818181"/>
<path d="M56.6289 12.332H57.1593V15.6362H61.7235V12.332H62.254V19.4714H61.7235V16.1235H57.1593V19.4714H56.6289V12.332Z" fill="#818181"/>
<path d="M66.0295 12.8252H63.543V12.3379H69.0417V12.8252H66.5548V19.4773H66.0244V12.8252H66.0295Z" fill="#818181"/>
<path d="M70.3711 12.332H70.9015V19.4714H70.3711V12.332Z" fill="#818181"/>
<path d="M72.9068 12.332H73.4085L78.3279 18.5455V12.332H78.8386V19.4714H78.4396L73.413 13.1264V19.4714H72.9023V12.332H72.9068Z" fill="#818181"/>
<path d="M80.4609 15.9244V15.9049C80.4609 13.9751 81.8569 12.2109 83.9837 12.2109C85.1467 12.2109 85.8763 12.557 86.5919 13.1515L86.2465 13.5511C85.6867 13.0638 85.0344 12.6934 83.9544 12.6934C82.222 12.6934 81.0105 14.1603 81.0105 15.8854V15.9049C81.0105 17.7519 82.1639 19.1262 84.0661 19.1262C84.9712 19.1262 85.8182 18.751 86.3385 18.3123V16.2607H83.9544V15.7733H86.8446V18.5268C86.2025 19.0969 85.2048 19.5989 84.0418 19.5989C81.7937 19.594 80.4609 17.9322 80.4609 15.9244Z" fill="#818181"/>
<path d="M92.4258 15.7734H100.396V16.2608H92.4258V15.7734Z" fill="#818181"/>
<path d="M40.3047 22.6101H40.8351V29.7495H40.3047V22.6101ZM42.8398 22.6101H43.341L48.2605 28.8236V22.6101H48.7715V29.7495H48.3725L43.3508 23.4045V29.7495H42.8398V22.6101ZM50.2312 28.7067L50.5768 28.307C51.3601 29.0331 52.0852 29.3694 53.1314 29.3694C54.2019 29.3694 54.9318 28.7651 54.9318 27.9513V27.9318C54.9318 27.1764 54.5328 26.7378 52.9173 26.4113C51.2045 26.0653 50.5135 25.4854 50.5135 24.4035V24.384C50.5135 23.3217 51.4818 22.5078 52.8053 22.5078C53.8467 22.5078 54.5279 22.7953 55.2481 23.3753L54.9123 23.7943C54.2408 23.2144 53.5693 22.9902 52.7859 22.9902C51.7348 22.9902 51.0439 23.5897 51.0439 24.3353V24.3548C51.0439 25.1101 51.4332 25.5682 53.1216 25.9143C54.7712 26.2505 55.4622 26.8402 55.4622 27.8831V27.9025C55.4622 29.0575 54.4744 29.8518 53.0973 29.8518C51.9635 29.8518 51.0876 29.4717 50.2312 28.7067ZM58.9024 23.0975H56.4159V22.6101H61.9144V23.0975H59.4279V29.7495H58.8975V23.0975H58.9024ZM63.2088 22.6101H66.2012C67.077 22.6101 67.7778 22.8879 68.2061 23.3119C68.5419 23.6481 68.7461 24.1257 68.7461 24.6375V24.6569C68.7461 25.8509 67.8608 26.5332 66.6589 26.6988L69.0136 29.7495H68.3421L66.0697 26.7914H63.7392V29.7495H63.2088V22.6101ZM66.1431 26.3138C67.3348 26.3138 68.2208 25.7096 68.2208 24.6813V24.6618C68.2208 23.7018 67.4663 23.1023 66.1718 23.1023H63.7392V26.3138H66.1431ZM70.2353 26.7817V22.6101H70.7657V26.733C70.7657 28.4142 71.6708 29.384 73.1792 29.384C74.6243 29.384 75.5537 28.5068 75.5537 26.7817V22.6101H76.0841V26.7183C76.0841 28.77 74.8917 29.8616 73.1594 29.8616C71.4468 29.8616 70.2353 28.7797 70.2353 26.7817ZM77.9965 22.6101H78.4975L81.3591 26.8353L84.2199 22.6101H84.721V29.7495H84.1906V23.5458L81.3686 27.6589H81.3297L78.5071 23.5458V29.7495H77.9965V22.6101ZM86.7164 22.6101H91.7864V23.0975H87.2417V25.9045H91.3243V26.3918H87.2417V29.2573H91.8349V29.7447H86.7112V22.6101H86.7164ZM93.1735 22.6101H93.6745L98.5939 28.8236V22.6101H99.1052V29.7495H98.7057L93.6796 23.4045V29.7495H93.1683V22.6101H93.1735ZM102.876 23.0975H100.39V22.6101H105.888V23.0975H103.402V29.7495H102.871V23.0975H102.876ZM106.589 28.7067L106.934 28.307C107.718 29.0331 108.443 29.3694 109.489 29.3694C110.56 29.3694 111.289 28.7651 111.289 27.9513V27.9318C111.289 27.1764 110.89 26.7378 109.275 26.4113C107.562 26.0653 106.871 25.4854 106.871 24.4035V24.384C106.871 23.3217 107.839 22.5078 109.163 22.5078C110.204 22.5078 110.885 22.7953 111.606 23.3753L111.27 23.7943C110.599 23.2144 109.927 22.9902 109.143 22.9902C108.093 22.9902 107.401 23.5897 107.401 24.3353V24.3548C107.401 25.1101 107.791 25.5682 109.479 25.9143C111.129 26.2505 111.82 26.8402 111.82 27.8831V27.9025C111.82 29.0575 110.832 29.8518 109.455 29.8518C108.316 29.8518 107.44 29.4717 106.589 28.7067Z" fill="#818181"/>
<path d="M31.9641 16.8353C31.9009 16.5624 31.8084 16.309 31.6916 16.0702L23.8331 0.5C23.8331 0.5 16.8748 9.86159 16.7142 10.0955C16.5536 10.3246 16.3298 10.4464 16.1205 10.4464C15.9113 10.4464 15.6875 10.3246 15.5269 10.0955C15.3663 9.86159 8.40802 0.5 8.40802 0.5L0.5495 16.0751C0.432717 16.309 0.340264 16.5672 0.277007 16.8402C0.213749 17.1033 0.179688 17.3811 0.179688 17.6589V30.5L8.155 21.6745L16.1205 29.6618L24.0862 21.6745L32.0615 30.5V17.654C32.0615 17.3762 32.0274 17.0984 31.9641 16.8353Z" fill="#818181"/>
<path d="M28.6905 3.5835C28.0676 3.5835 27.5664 3.08154 27.5664 2.45777C27.5664 1.83886 28.0676 1.33203 28.6905 1.33203C29.3133 1.33203 29.8145 1.83886 29.8145 2.45777C29.8096 3.08154 29.3084 3.5835 28.6905 3.5835ZM28.6905 1.44899C28.1406 1.44899 27.6978 1.91196 27.6978 2.45777C27.6978 3.00358 28.1406 3.46654 28.6905 3.46654C29.2403 3.46654 29.6831 3.00845 29.6831 2.45777C29.6831 1.90708 29.2354 1.44899 28.6905 1.44899ZM28.8948 2.92073L28.6661 2.55523L28.5299 2.55036V2.88661C28.5299 2.91098 28.5493 2.9256 28.5786 2.93048L28.6905 2.94996L28.6953 3.05718H28.1796L28.1844 2.94996L28.2817 2.93048C28.3109 2.9256 28.3255 2.91098 28.3255 2.88661V2.02404C28.3255 1.99967 28.3109 1.98506 28.2817 1.97531L28.1844 1.95582L28.1796 1.8486H28.7002C29.0214 1.8486 29.1479 2.00455 29.1479 2.15562C29.1479 2.32619 29.0505 2.44802 28.8608 2.50162L29.0846 2.83788C29.143 2.91585 29.1624 2.92073 29.1965 2.93048L29.3036 2.94509L29.3084 3.0523H28.9678L28.8948 2.92073ZM28.6077 1.96556L28.5299 1.97043V2.42853L28.6612 2.44802C28.8218 2.43827 28.9289 2.3603 28.9289 2.19461C28.9289 2.02891 28.8218 1.95582 28.6077 1.96556Z" fill="#818181"/>
</svg>
