<svg width="162" height="31" viewBox="0 0 162 31" fill="none" xmlns="http://www.w3.org/2000/svg">
<path fill-rule="evenodd" clip-rule="evenodd" d="M49.1641 10.6475C52.3028 10.0713 55.655 7.87065 56.3397 4.51758H56.7042V10.6475H59.8964V11.1179H56.7042V27.3577C56.7042 27.933 56.8643 28.8293 57.5934 28.7191C58.527 28.5777 59.1139 26.8874 59.3184 25.9964H59.6385C59.0606 28.6666 57.38 30.5001 54.4546 30.5001C52.3028 30.5001 49.1641 29.2953 49.1641 26.7807" fill="#818181"/>
<path fill-rule="evenodd" clip-rule="evenodd" d="M122.123 29.2444C121.127 29.2444 120.753 28.6664 120.753 27.7239V10.6474H110.279V11.1186H110.91C112.537 11.1186 113.053 11.7473 113.053 13.3709V27.5665C113.053 28.3517 112.955 29.2444 111.959 29.2444H110.563C109.888 29.2444 109.416 28.6149 109.416 27.9871V15.52C109.416 11.6957 106.953 9.86133 103.237 9.86133C100.88 9.86133 98.6218 10.5949 97.626 12.8472C96.9502 10.5433 94.6384 9.86133 92.4421 9.86133C89.9257 9.86133 87.934 10.9097 86.787 13.1619V10.6482H76.9883V11.1186H77.5129C78.98 11.1186 79.6113 12.062 79.6113 13.4758V27.7239C79.6113 28.7198 79.1845 29.2444 78.1442 29.2444H76.9883V29.7148H88.4764V29.2444H88.0407C87.0982 29.2444 86.787 28.5633 86.787 27.7239V15.0461C86.787 13.6848 87.4094 11.8531 89.0366 11.8531C90.0858 11.8531 90.7171 12.7938 90.7171 13.7906V27.7239C90.7171 28.4584 90.6104 29.2444 89.7212 29.2444H89.0544V29.7148H99.7244V29.2444H99.3599C98.4173 29.2444 98.0439 28.6149 98.0439 27.7239V14.3668C98.0439 13.0561 98.4707 11.485 100.089 11.485C101.663 11.485 102.027 13.0561 102.027 14.3668V27.9871C102.027 28.7198 101.556 29.2444 100.774 29.2444H100.302V29.7148H123.163V29.2444" fill="#818181"/>
<path fill-rule="evenodd" clip-rule="evenodd" d="M116.67 2.21289C118.715 2.21289 120.751 3.73249 120.751 5.88073C120.751 8.08054 118.715 9.60013 116.67 9.60013C114.571 9.60013 112.535 8.08054 112.535 5.88073C112.535 3.73249 114.571 2.21289 116.67 2.21289Z" fill="#818181"/>
<path fill-rule="evenodd" clip-rule="evenodd" d="M131.344 28.5098C129.77 28.5098 129.877 25.8138 129.824 24.8704L129.664 22.1985C129.61 21.36 129.61 20.5224 129.61 19.7381C129.61 18.8987 129.61 18.0611 129.664 17.2218L129.824 14.5498C129.877 13.6073 129.77 10.9104 131.344 10.9104C134.172 10.9104 133.594 18.1652 133.594 19.7381C133.594 21.255 134.172 28.5098 131.344 28.5098ZM143.072 29.2452C142.032 29.2452 141.134 28.9304 141.134 27.7247V1.5332H130.66V2.00446H131.398C132.811 2.00446 133.701 2.63311 133.701 4.09935V12.8479C132.963 11.0678 131.655 9.80962 129.61 9.80962C124.533 9.80962 121.91 15.8862 121.91 20.1809C121.91 24.32 124.169 30.1877 129.086 30.1877C131.495 30.1877 132.909 28.3017 133.701 26.2575V29.7155H143.179V29.2452" fill="#818181"/>
<path fill-rule="evenodd" clip-rule="evenodd" d="M69.2311 10.4899C71.2228 10.4899 71.1161 13.7381 71.1161 14.9945V19.3959H66.9281C66.9281 17.509 66.4569 10.4899 69.2311 10.4899ZM77.8738 19.8662C77.8738 19.6048 77.9272 19.3959 77.9272 19.1336C77.9272 14.2102 74.3172 10.0195 69.2311 10.0195C63.5759 10.0195 59.2812 14.5748 59.2812 20.181C59.2812 25.9971 63.7894 30.3958 69.6045 30.3958C73.9971 30.3958 77.7671 27.2526 77.8738 22.8005H77.4559C77.4026 26.2567 74.5217 29.7681 70.8583 29.7681C67.0348 29.7681 66.9281 25.1052 66.9281 22.3817C66.9281 21.5423 66.9281 20.7047 66.9815 19.8662" fill="#818181"/>
<path fill-rule="evenodd" clip-rule="evenodd" d="M9.7949 17.196L13.4627 5.30512L17.2346 17.196H9.7949ZM44.2654 9.91459C42.167 9.91459 40.6465 11.3817 40.0241 13.2677V10.6491H30.1187V11.1194H30.6433C32.0038 11.1194 32.5817 11.7996 32.5817 13.1627V27.8296C32.5817 28.4067 32.3772 29.1412 31.6392 29.1412C30.9012 29.1412 30.3321 28.4592 30.1187 27.8296L21.2181 0.589844H14.4568L7.64754 22.2776C6.7557 25.0536 4.92312 29.2452 1.41356 29.2452H0.941406V29.7156H12.8332V29.2452H12.3619C9.63751 29.2452 7.8565 27.1494 7.8565 24.4775C7.8565 23.7448 7.96053 23.0637 8.17038 22.3826L9.63751 17.7206H17.3947L20.1689 26.6257C20.2756 26.992 20.3734 27.4108 20.3734 27.7772C20.3734 29.0869 18.6484 29.2452 17.7059 29.2452H16.87V29.7156H42.5849V29.2452H41.8558C40.6465 29.2452 40.0241 28.4592 40.0241 27.3086V16.3069C40.0241 13.2677 41.6868 10.4081 44.0254 10.4081C45.288 10.4081 46.3639 10.8064 46.8352 12.0104C46.0971 11.5391 45.368 11.1763 44.47 11.1763C42.4782 11.1763 41.02 12.6915 41.02 14.7339C41.02 16.7248 42.5405 18.2444 44.5233 18.2444C46.8352 18.2444 48.2934 16.4118 48.2934 14.2102C48.2934 11.9579 46.6217 9.91459 44.2654 9.91459Z" fill="#818181"/>
<path fill-rule="evenodd" clip-rule="evenodd" d="M152.248 10.4899C154.177 10.4899 154.079 13.7381 154.079 14.9945V17.4041L154.133 19.3959H149.883C149.883 17.509 149.411 10.4899 152.248 10.4899ZM160.891 19.8662V19.1336C160.891 14.2102 157.272 10.0195 152.194 10.0195C146.53 10.0195 142.289 14.5748 142.289 20.181C142.289 25.9971 146.744 30.3958 152.559 30.3958C157.014 30.3958 160.624 27.2526 160.891 22.8005H160.41C160.366 26.2567 157.485 29.7681 153.866 29.7681C150.043 29.7681 149.883 25.1052 149.883 22.3817C149.883 21.5423 149.936 20.7047 149.936 19.8662" fill="#818181"/>
<path fill-rule="evenodd" clip-rule="evenodd" d="M158.442 0.5C157.002 0.5 155.828 1.6746 155.828 3.11683C155.828 4.55996 157.002 5.73367 158.442 5.73367C159.883 5.73367 161.056 4.55996 161.056 3.11683C161.056 1.6746 159.883 0.5 158.442 0.5ZM160.656 3.11683C160.656 4.34034 159.669 5.33532 158.442 5.33532C157.224 5.33532 156.228 4.34034 156.228 3.11683C156.228 1.89422 157.224 0.899238 158.442 0.899238C159.669 0.899238 160.656 1.89422 160.656 3.11683Z" fill="#818181"/>
<path d="M157.918 2.95073H158.398C158.878 2.95073 159.109 2.80935 159.109 2.47769C159.109 2.12202 158.887 2.0002 158.407 2.0002H157.918V2.95073ZM158.398 1.64453C159.163 1.64453 159.536 1.89172 159.536 2.46524C159.536 2.84936 159.341 3.10455 158.958 3.21392L159.634 4.57702H159.172L158.558 3.31084H157.918V4.57702H157.5V1.64453" fill="#818181"/>
<path fill-rule="evenodd" clip-rule="evenodd" d="M49.1641 10.6475C52.3028 10.0713 55.655 7.87065 56.3397 4.51758H56.7042V10.6475H59.8964V11.1179H56.7042V27.3577C56.7042 27.933 56.8643 28.8293 57.5934 28.7191C58.527 28.5777 59.1139 26.8874 59.3184 25.9964H59.6385C59.0606 28.6666 57.38 30.5001 54.4546 30.5001C52.3028 30.5001 49.1641 29.2953 49.1641 26.7807" fill="#818181"/>
<path fill-rule="evenodd" clip-rule="evenodd" d="M122.123 29.2444C121.127 29.2444 120.753 28.6664 120.753 27.7239V10.6474H110.279V11.1186H110.91C112.537 11.1186 113.053 11.7473 113.053 13.3709V27.5665C113.053 28.3517 112.955 29.2444 111.959 29.2444H110.563C109.888 29.2444 109.416 28.6149 109.416 27.9871V15.52C109.416 11.6957 106.953 9.86133 103.237 9.86133C100.88 9.86133 98.6218 10.5949 97.626 12.8472C96.9502 10.5433 94.6384 9.86133 92.4421 9.86133C89.9257 9.86133 87.934 10.9097 86.787 13.1619V10.6482H76.9883V11.1186H77.5129C78.98 11.1186 79.6113 12.062 79.6113 13.4758V27.7239C79.6113 28.7198 79.1845 29.2444 78.1442 29.2444H76.9883V29.7148H88.4764V29.2444H88.0407C87.0982 29.2444 86.787 28.5633 86.787 27.7239V15.0461C86.787 13.6848 87.4094 11.8531 89.0366 11.8531C90.0858 11.8531 90.7171 12.7938 90.7171 13.7906V27.7239C90.7171 28.4584 90.6104 29.2444 89.7212 29.2444H89.0544V29.7148H99.7244V29.2444H99.3599C98.4173 29.2444 98.0439 28.6149 98.0439 27.7239V14.3668C98.0439 13.0561 98.4707 11.485 100.089 11.485C101.663 11.485 102.027 13.0561 102.027 14.3668V27.9871C102.027 28.7198 101.556 29.2444 100.774 29.2444H100.302V29.7148H123.163V29.2444" fill="#818181"/>
<path fill-rule="evenodd" clip-rule="evenodd" d="M116.67 2.21289C118.715 2.21289 120.751 3.73249 120.751 5.88073C120.751 8.08054 118.715 9.60013 116.67 9.60013C114.571 9.60013 112.535 8.08054 112.535 5.88073C112.535 3.73249 114.571 2.21289 116.67 2.21289Z" fill="#818181"/>
<path fill-rule="evenodd" clip-rule="evenodd" d="M131.344 28.5098C129.77 28.5098 129.877 25.8138 129.824 24.8704L129.664 22.1985C129.61 21.36 129.61 20.5224 129.61 19.7381C129.61 18.8987 129.61 18.0611 129.664 17.2218L129.824 14.5498C129.877 13.6073 129.77 10.9104 131.344 10.9104C134.172 10.9104 133.594 18.1652 133.594 19.7381C133.594 21.255 134.172 28.5098 131.344 28.5098ZM143.072 29.2452C142.032 29.2452 141.134 28.9304 141.134 27.7247V1.5332H130.66V2.00446H131.398C132.811 2.00446 133.701 2.63311 133.701 4.09935V12.8479C132.963 11.0678 131.655 9.80962 129.61 9.80962C124.533 9.80962 121.91 15.8862 121.91 20.1809C121.91 24.32 124.169 30.1877 129.086 30.1877C131.495 30.1877 132.909 28.3017 133.701 26.2575V29.7155H143.179V29.2452" fill="#818181"/>
<path fill-rule="evenodd" clip-rule="evenodd" d="M69.2311 10.4899C71.2228 10.4899 71.1161 13.7381 71.1161 14.9945V19.3959H66.9281C66.9281 17.509 66.4569 10.4899 69.2311 10.4899ZM77.8738 19.8662C77.8738 19.6048 77.9272 19.3959 77.9272 19.1336C77.9272 14.2102 74.3172 10.0195 69.2311 10.0195C63.5759 10.0195 59.2812 14.5748 59.2812 20.181C59.2812 25.9971 63.7894 30.3958 69.6045 30.3958C73.9971 30.3958 77.7671 27.2526 77.8738 22.8005H77.4559C77.4026 26.2567 74.5217 29.7681 70.8583 29.7681C67.0348 29.7681 66.9281 25.1052 66.9281 22.3817C66.9281 21.5423 66.9281 20.7047 66.9815 19.8662" fill="#818181"/>
<path fill-rule="evenodd" clip-rule="evenodd" d="M9.7949 17.196L13.4627 5.30512L17.2346 17.196H9.7949ZM44.2654 9.91459C42.167 9.91459 40.6465 11.3817 40.0241 13.2677V10.6491H30.1187V11.1194H30.6433C32.0038 11.1194 32.5817 11.7996 32.5817 13.1627V27.8296C32.5817 28.4067 32.3772 29.1412 31.6392 29.1412C30.9012 29.1412 30.3321 28.4592 30.1187 27.8296L21.2181 0.589844H14.4568L7.64754 22.2776C6.7557 25.0536 4.92312 29.2452 1.41356 29.2452H0.941406V29.7156H12.8332V29.2452H12.3619C9.63751 29.2452 7.8565 27.1494 7.8565 24.4775C7.8565 23.7448 7.96053 23.0637 8.17038 22.3826L9.63751 17.7206H17.3947L20.1689 26.6257C20.2756 26.992 20.3734 27.4108 20.3734 27.7772C20.3734 29.0869 18.6484 29.2452 17.7059 29.2452H16.87V29.7156H42.5849V29.2452H41.8558C40.6465 29.2452 40.0241 28.4592 40.0241 27.3086V16.3069C40.0241 13.2677 41.6868 10.4081 44.0254 10.4081C45.288 10.4081 46.3639 10.8064 46.8352 12.0104C46.0971 11.5391 45.368 11.1763 44.47 11.1763C42.4782 11.1763 41.02 12.6915 41.02 14.7339C41.02 16.7248 42.5405 18.2444 44.5233 18.2444C46.8352 18.2444 48.2934 16.4118 48.2934 14.2102C48.2934 11.9579 46.6217 9.91459 44.2654 9.91459Z" fill="#818181"/>
<path fill-rule="evenodd" clip-rule="evenodd" d="M152.248 10.4899C154.177 10.4899 154.079 13.7381 154.079 14.9945V17.4041L154.133 19.3959H149.883C149.883 17.509 149.411 10.4899 152.248 10.4899ZM160.891 19.8662V19.1336C160.891 14.2102 157.272 10.0195 152.194 10.0195C146.53 10.0195 142.289 14.5748 142.289 20.181C142.289 25.9971 146.744 30.3958 152.559 30.3958C157.014 30.3958 160.624 27.2526 160.891 22.8005H160.41C160.366 26.2567 157.485 29.7681 153.866 29.7681C150.043 29.7681 149.883 25.1052 149.883 22.3817C149.883 21.5423 149.936 20.7047 149.936 19.8662" fill="#818181"/>
<path fill-rule="evenodd" clip-rule="evenodd" d="M158.442 0.5C157.002 0.5 155.828 1.6746 155.828 3.11683C155.828 4.55996 157.002 5.73367 158.442 5.73367C159.883 5.73367 161.056 4.55996 161.056 3.11683C161.056 1.6746 159.883 0.5 158.442 0.5ZM160.656 3.11683C160.656 4.34034 159.669 5.33532 158.442 5.33532C157.224 5.33532 156.228 4.34034 156.228 3.11683C156.228 1.89422 157.224 0.899238 158.442 0.899238C159.669 0.899238 160.656 1.89422 160.656 3.11683Z" fill="#818181"/>
<path d="M157.918 2.95073H158.398C158.878 2.95073 159.109 2.80935 159.109 2.47769C159.109 2.12202 158.887 2.0002 158.407 2.0002H157.918V2.95073ZM158.398 1.64453C159.163 1.64453 159.536 1.89172 159.536 2.46524C159.536 2.84936 159.341 3.10455 158.958 3.21392L159.634 4.57702H159.172L158.558 3.31084H157.918V4.57702H157.5V1.64453" fill="#818181"/>
</svg>
