<svg width="100" height="31" viewBox="0 0 100 31" fill="none" xmlns="http://www.w3.org/2000/svg">
<path d="M0.765625 1.21102V29.7456H20.2904V25.0737H6.77354V16.9381H18.9557V12.5163H6.73096V5.75654H19.7474V1.21102H0.765625ZM70.6464 8.511C70.6464 3.25358 65.3065 0.4592 60.6771 0.50045C48.286 0.582951 49.119 13.308 48.9115 15.1443C48.7451 26.7836 53.9174 30.3298 61.0936 30.4961C68.3111 30.6624 70.8141 25.4489 70.6477 22.8608H68.186C68.2273 24.9473 66.3497 28.2034 61.3425 28.411C58.0464 28.5361 51.288 27.075 51.3319 15.7272C51.3319 10.0532 52.6666 2.62684 60.9273 2.83575C65.5167 2.91958 67.8108 5.29747 67.8108 8.50967L70.6464 8.511ZM28.6762 16.7731C28.6762 16.7731 33.8085 16.7731 35.6861 16.7731C35.6861 16.7731 39.2323 16.773 39.859 21.9866C40.1504 23.2387 40.6095 27.0364 41.4864 29.747C41.4864 29.747 46.2422 29.7882 45.8669 29.7882C45.5329 29.7882 44.4897 25.1163 44.0306 21.6113C43.7804 19.7763 42.7798 15.8536 40.1092 15.1457C40.1092 15.1457 44.7398 14.0186 44.8649 8.55225C44.9488 6.09187 43.155 1.20969 38.6907 1.20969H24.6296V29.7882H28.6762V16.7731ZM28.6762 13.308V4.29813C28.6762 4.29813 36.688 4.29813 37.521 4.29813C37.521 4.29813 40.8583 4.25689 41.0686 8.38725C41.2775 9.80573 40.0253 13.3094 36.3128 13.3094C34.3501 13.308 28.6762 13.308 28.6762 13.308ZM86.1672 0.709363C75.9451 0.750614 73.3596 7.71926 73.0655 13.6433C72.6078 22.3631 76.2378 30.4136 86.1672 30.4136C96.0114 30.4136 99.7239 22.3605 99.1823 13.642C98.8497 7.8856 95.8863 0.709363 86.1672 0.709363ZM97.3061 15.1457C97.3061 22.9047 94.0926 28.7463 86.1672 28.7463C78.1566 28.7463 74.6929 22.8209 74.8593 15.1044C74.9005 12.8104 74.4441 2.25426 86.1672 2.33809C97.1797 2.42059 97.3061 12.8503 97.3061 15.1457Z" fill="#818181"/>
</svg>
