<svg width="204" height="120" viewBox="0 0 204 120" fill="none" xmlns="http://www.w3.org/2000/svg">
<path d="M19.7962 96.0897H16.607L12.8486 85.1885L9.09018 96.0897H5.90297L0.21875 79.3113H4.14376L7.59277 90.5915L11.3274 79.2637H14.467L18.2016 90.5915L21.6506 79.3113H25.4804L19.7962 96.0897Z" fill="#818181"/>
<path d="M27.543 95.9679V79.3086H40.1034V82.5706H31.1824V85.9497H39.0324V89.2098H31.1824V92.7099H40.2224V95.9699H27.543V95.9679Z" fill="#818181"/>
<path d="M51.7006 96.0909H48.4658L41.7344 79.3125H45.7784L50.1318 91.0451L54.4852 79.3125H58.434L51.7006 96.0909Z" fill="#818181"/>
<path d="M60.3945 95.9679V79.3086H72.953V82.5706H64.0339V85.9497H71.884V89.2098H64.0339V92.7099H73.074V95.9699H60.3945V95.9679Z" fill="#818181"/>
<path d="M86.2067 95.9646L82.6387 90.633H79.7609V95.9646H76.0977V79.3052H83.7097C87.6347 79.3052 89.9909 81.3767 89.9909 84.8034V84.8491C89.9909 87.5377 88.5391 89.2282 86.4229 90.0139L90.4907 95.9626H86.2067V95.9646ZM86.2781 84.9939C86.2781 83.4244 85.1833 82.6149 83.4003 82.6149H79.7609V87.3988H83.4717C85.2547 87.3988 86.2781 86.4483 86.2781 85.0415V84.9939ZM110.459 96.2979L108.531 94.3474C107.174 95.4665 105.582 96.2047 103.654 96.2047C100.467 96.2047 98.065 94.3474 98.065 91.3731C98.065 89.2302 99.2074 87.7301 101.3 86.7817C100.491 85.615 100.134 84.5911 100.134 83.4264C100.134 81.1168 101.964 79.0234 105.175 79.0234C108.005 79.0234 109.86 80.8569 109.86 83.2359C109.86 85.4959 108.434 86.8055 106.363 87.615L108.577 89.8274C109.124 88.9703 109.669 87.994 110.193 86.9722L112.88 88.4464C112.238 89.6131 111.524 90.8513 110.691 91.9684L113.142 94.4189L110.459 96.2979ZM103.297 89.0159C102.202 89.5854 101.75 90.3949 101.75 91.2283C101.75 92.4188 102.726 93.2045 104.08 93.2045C104.913 93.2045 105.723 92.8454 106.482 92.2521L103.297 89.0159ZM105.106 81.8767C104.13 81.8767 103.487 82.5672 103.487 83.5891C103.487 84.351 103.773 84.8967 104.463 85.6824C105.915 85.1368 106.677 84.5157 106.677 83.4462C106.675 82.4482 106.034 81.8767 105.106 81.8767ZM128.261 95.9646H121.77V79.3052H128.261C133.495 79.3052 137.111 82.9006 137.111 87.5873V87.6349C137.111 92.3236 133.495 95.9646 128.261 95.9646ZM133.281 87.6369C133.281 84.6844 131.258 82.6149 128.261 82.6149H125.431V92.6589H128.261C131.26 92.6589 133.281 90.635 133.281 87.6845V87.6369ZM146.809 96.2265C142.339 96.2265 139.602 93.7284 139.602 88.8254V79.3052H143.265V88.7282C143.265 91.4406 144.622 92.8454 146.857 92.8454C149.092 92.8454 150.449 91.4882 150.449 88.8472V79.3032H154.11V88.7024C154.11 93.7522 151.282 96.2265 146.809 96.2265ZM165.185 96.2523C160.284 96.2523 156.643 92.4664 156.643 87.6845V87.6389C156.643 82.9026 160.211 79.0234 165.326 79.0234C168.465 79.0234 170.343 80.0691 171.89 81.593L169.56 84.2816C168.277 83.1149 166.966 82.4025 165.304 82.4025C162.497 82.4025 160.474 84.734 160.474 87.5892V87.6369C160.474 90.4921 162.448 92.8732 165.304 92.8732C167.208 92.8732 168.372 92.1093 169.679 90.9207L172.011 93.278C170.298 95.1074 168.396 96.2523 165.185 96.2523ZM184.379 95.9646L180.811 90.633H177.934V95.9646H174.268V79.3052H181.88C185.805 79.3052 188.162 81.3767 188.162 84.8034V84.8491C188.162 87.5377 186.71 89.2282 184.592 90.0139L188.661 95.9626H184.379V95.9646ZM184.451 84.9939C184.451 83.4244 183.356 82.6149 181.573 82.6149H177.934V87.3988H181.644C183.427 87.3988 184.451 86.4483 184.451 85.0415V84.9939ZM191.099 95.9646V79.3052H203.659V82.5672H194.738V85.9463H202.588V89.2064H194.738V92.7065H203.778V95.9665L191.099 95.9646ZM195.381 77.9976L198.068 73.7852L201.182 75.1424L198.138 77.9976H195.381Z" fill="#818181"/>
<path d="M125.165 11.8258L125.197 11.8278L130.391 6.62922L123.767 0L118.569 5.20059L118.573 5.23234C113.973 1.95245 108.361 0.00198418 102.28 0.00198418C96.2027 0.00198418 90.5899 1.95245 85.9925 5.23234L85.9945 5.20059L80.7982 0L74.1719 6.62723L79.3682 11.8278L79.3999 11.8258C76.1215 16.4252 74.1719 22.0385 74.1719 28.1201C74.1719 34.2017 76.1195 39.817 79.3999 44.4183H79.3682L74.1719 49.617L80.7962 56.2462L85.9945 51.0476L85.9925 51.0158C90.5919 54.2957 96.2027 56.2462 102.28 56.2462C108.359 56.2462 113.973 54.2977 118.573 51.0138L118.569 51.0476L123.767 56.2462L130.391 49.6189L125.197 44.4183H125.161C128.442 39.817 130.391 34.2037 130.391 28.1201C130.389 22.0405 128.442 16.4272 125.165 11.8258ZM102.28 46.8708C91.9306 46.8708 83.5391 38.4757 83.5391 28.1201C83.5391 17.7665 91.9306 9.37337 102.28 9.37535C112.633 9.37535 121.02 17.7665 121.02 28.1201C121.02 38.4757 112.631 46.8708 102.28 46.8708Z" fill="#818181"/>
<path d="M60.4102 110.111H62.1178V118.282H67.2308V119.838H60.4102V110.111Z" fill="#818181"/>
<path d="M73.0573 110.111V119.838H71.3477V110.111H73.0573Z" fill="#818181"/>
<path d="M82.6608 119.999C79.6184 119.999 77.6172 117.831 77.6172 114.983C77.6172 112.245 79.7017 109.939 82.631 109.939C84.3248 109.939 85.368 110.412 86.3676 111.259L85.2847 112.551C84.5331 111.912 83.7972 111.509 82.5616 111.509C80.7687 111.509 79.4081 113.067 79.4081 114.954C79.4081 116.969 80.727 118.444 82.7143 118.444C83.6306 118.444 84.4656 118.15 85.0626 117.706V115.886H82.5755V114.4H86.7147V118.485C85.7588 119.307 84.3843 119.999 82.6608 119.999Z" fill="#818181"/>
<path d="M93.1686 115.739V119.838H91.4609V110.111H93.1686V114.153H97.8076V110.111H99.5152V119.838H97.8076V115.739H93.1686Z" fill="#818181"/>
<path d="M108.413 119.838H106.69V111.695H103.605V110.109H111.493V111.695H108.411V119.838H108.413Z" fill="#818181"/>
<path d="M117.325 110.111V119.838H115.617V110.111H117.325Z" fill="#818181"/>
<path d="M129.146 110.111H130.828V119.838H129.398L124.037 112.917V119.838H122.355V110.111H123.938L129.146 116.838V110.111Z" fill="#818181"/>
<path d="M140.37 119.999C137.327 119.999 135.328 117.831 135.328 114.983C135.328 112.245 137.413 109.939 140.34 109.939C142.036 109.939 143.079 110.412 144.079 111.259L142.994 112.551C142.244 111.912 141.508 111.509 140.273 111.509C138.482 111.509 137.119 113.067 137.119 114.954C137.119 116.969 138.438 118.444 140.425 118.444C141.342 118.444 142.177 118.15 142.774 117.706V115.886H140.286V114.4H144.426V118.485C143.466 119.307 142.091 119.999 140.37 119.999Z" fill="#818181"/>
</svg>
