<svg width="80" height="31" viewBox="0 0 80 31" fill="none" xmlns="http://www.w3.org/2000/svg">
<path d="M79.2568 23.5383C79.2891 23.7361 79.2349 23.9519 79.2136 24.1497C79.0409 25.1749 78.8319 26.1856 78.2555 27.0561C77.9066 27.646 77.4816 28.1676 76.9599 28.6567C76.6214 28.9949 76.2396 29.2683 75.8365 29.484C74.9867 29.9301 74.0469 30.2142 73.0784 30.3869C72.2614 30.5056 71.4115 30.5164 70.5944 30.4193C69.9933 30.333 69.4169 30.1999 68.8521 30.0272C67.7937 29.6891 66.8033 29.2107 65.8527 28.6208C65.6552 28.4913 65.4819 28.3042 65.4496 28.0668L65.4352 27.4158L65.3489 24.9015L65.2734 22.8548C65.2947 22.7469 65.3379 22.6246 65.4462 22.5815C65.5539 22.5599 65.6765 22.5275 65.7629 22.5922C65.9356 22.6678 65.9719 22.8548 66.026 22.9951C66.3749 24.1066 66.6703 25.2288 67.192 26.2612C67.7684 27.405 68.8158 28.5272 70.0042 29.0164C70.7349 29.3761 71.552 29.5488 72.4128 29.5811C73.284 29.5488 74.1333 29.3726 74.8537 28.9481C75.7571 28.4265 76.6646 27.5633 76.9887 26.5741C77.1718 26.031 77.3486 25.4627 77.3164 24.8331C77.2404 23.9519 77.0964 23.103 76.6611 22.3836C76.4089 21.9484 76.117 21.5563 75.779 21.175L73.6439 18.8766C73.6116 18.7579 73.4711 18.7255 73.3813 18.6248L69.4025 14.3444C68.4778 13.3624 67.5813 12.3193 66.7746 11.2618C66.4579 10.7834 66.1515 10.305 65.9465 9.77987C65.7053 9.21515 65.5325 8.63599 65.4571 8.01734C65.3598 7.45261 65.3598 6.84114 65.3811 6.2548C65.4894 5.26205 65.7847 4.32684 66.3064 3.49953C66.6018 2.96719 67.1022 2.49598 67.5594 2.06075C67.8225 1.84133 68.1139 1.67947 68.3983 1.49602C69.0536 1.13633 69.7486 0.862957 70.5012 0.722676C71.5595 0.470887 72.7474 0.449306 73.8241 0.679512C74.6302 0.841375 75.3828 1.12554 76.1026 1.48523C76.5603 1.72623 77.0279 1.98521 77.4096 2.3557C77.5611 2.48519 77.5933 2.66144 77.6296 2.83409L77.7263 3.76931C77.7914 4.78366 77.9354 5.74045 77.9895 6.75479C77.9785 6.90588 77.8812 7.0713 77.7263 7.12529C77.6296 7.12529 77.5392 7.10373 77.4851 7.02818C77.3233 6.79797 77.302 6.50658 77.2006 6.24402C76.9599 5.42751 76.6789 4.64337 76.1751 3.94556V3.91319C75.9339 3.60745 75.6851 3.26933 75.3794 2.98877C74.803 2.39886 74.1264 2.02118 73.428 1.72623C72.3587 1.33416 70.9221 1.35574 69.8637 1.7586C69.0789 2.05355 68.2941 2.67223 67.8905 3.45637C67.4874 4.1326 67.3901 5.01386 67.4661 5.84117C67.412 5.88433 67.5093 5.89512 67.4983 5.94907C67.5738 6.69005 67.8905 7.33388 68.2509 7.96335C68.5567 8.45258 68.9275 8.90938 69.3092 9.36981L70.9111 11.0784L73.0784 13.3552L74.8894 15.2616C76.5241 16.9702 78.2451 18.6824 78.9217 20.837C79.163 21.675 79.3144 22.603 79.2603 23.5167L79.2568 23.5383Z" fill="#818181"/>
<path d="M30.5288 30.0284C30.4639 30.2227 30.2551 30.2371 30.0823 30.2443L27.969 30.2335L24.8944 30.2551L20.6389 30.3126L16.9666 30.3342C16.6282 30.3234 16.279 30.3881 15.9514 30.3126C15.8542 30.291 15.7786 30.1939 15.7318 30.0932C15.6994 29.9853 15.6885 29.863 15.7641 29.7767C15.8722 29.6256 16.0594 29.604 16.2214 29.5464C16.8658 29.4601 17.5067 29.3846 18.0323 29.0033C18.4139 28.6544 18.6084 28.1868 18.6551 27.6761L18.6444 19.5397L18.6335 13.2126L18.6984 3.11594C18.6444 2.62676 18.5688 2.12318 18.0971 1.83182C17.5318 1.37501 16.7254 1.46133 16.0594 1.24552C15.9621 1.16998 15.9298 1.06207 15.9298 0.950566C15.9298 0.853448 15.9514 0.741942 16.0378 0.687987C16.1566 0.623242 16.3006 0.590869 16.441 0.580078L24.2679 0.612451C24.322 0.655614 24.3543 0.580078 24.4083 0.60166C24.6712 0.623242 25.042 0.526124 25.1932 0.821075C25.2256 0.918193 25.258 1.05128 25.204 1.1484C25.1068 1.31026 24.9303 1.31026 24.7684 1.33185C23.9835 1.33185 23.1987 1.39659 22.5326 1.7347C22.3022 1.83182 22.0862 2.04045 21.9206 2.25626C21.8234 2.47568 21.7369 2.6915 21.7478 2.95408L21.7046 6.36403L21.6182 13.8888C21.5966 15.119 21.6182 16.3923 21.6073 17.6261V24.3236L21.629 28.2552C21.6938 28.604 21.4994 29.104 21.8918 29.2911C22.241 29.3882 22.6442 29.3559 23.0151 29.345C24.0627 29.2803 25.0744 29.1616 26.0464 28.9098C26.8745 28.7012 27.681 28.4314 28.401 27.9278C29.4271 27.1005 29.6971 25.9135 30.1543 24.8344L30.7088 23.2122C30.7628 23.1151 30.8491 23.0395 30.9608 23.0395C31.0904 23.0503 31.2236 23.1151 31.2884 23.2338L31.3316 23.3957L31.2452 24.2122L30.5288 30.0284Z" fill="#818181"/>
<path d="M14.7799 6.94474C14.6827 7.02029 14.5171 7.02029 14.4091 6.97711C14.2687 6.92318 14.2255 6.75771 14.1787 6.63898C13.8727 5.67142 13.5666 4.71103 13.1526 3.79739C12.879 3.23267 12.5082 2.58881 11.9105 2.26149C10.5496 1.50972 8.82511 1.55289 7.20141 1.50972C7.11498 1.53131 6.98179 1.50972 6.93861 1.60684L6.91702 1.82626L6.85218 5.58509L6.84141 6.92318L6.75498 13.6423L6.76575 14.2862C6.77658 14.3509 6.86301 14.3725 6.91702 14.3833C8.00788 14.4049 9.13115 14.3725 10.1212 14.0883C10.8845 13.8042 11.2769 13.0308 11.5181 12.3366C11.7161 11.7143 11.8781 11.0741 12.0725 10.4626C12.1374 10.3547 12.2562 10.2792 12.3893 10.3007C12.4974 10.3331 12.6198 10.3871 12.6738 10.4986L12.717 10.6604L12.6306 14.1999L12.6198 15.6171L12.7062 19.1996C12.6954 19.3399 12.5982 19.473 12.4649 19.5161C12.357 19.5485 12.2237 19.5161 12.1481 19.4406C12.0618 19.3651 12.0293 19.2787 11.9969 19.1781C11.7449 18.4694 11.6477 17.7069 11.3525 17.0235C11.1437 16.5127 10.8845 15.912 10.3156 15.6746C9.84757 15.4336 9.26796 15.4336 8.71352 15.3797C8.07985 15.3473 7.46063 15.2825 6.82696 15.3365C6.77301 15.3473 6.75136 15.4012 6.75136 15.4552L6.67575 20.0198V20.2283L6.70817 24.0088L6.76218 27.1561C6.7946 27.4618 6.77301 27.7892 6.90256 28.059C6.99982 28.505 7.40299 28.9186 7.84947 29.0625C8.48309 29.3359 9.21033 29.3467 9.89801 29.487C9.9952 29.5085 10.0708 29.5949 10.1068 29.6848C10.1284 29.7819 10.1608 29.9258 10.0852 30.0013C10.0096 30.1308 9.87642 30.1308 9.75757 30.1524L5.27168 30.1308L1.48063 30.1416C1.21781 30.1308 0.904588 30.174 0.760578 29.9222C0.717376 29.8143 0.717376 29.6812 0.78218 29.5841C0.803781 29.4978 0.890187 29.4761 0.965792 29.4546C1.65344 29.3467 2.35189 29.2352 2.92792 28.8539C3.29875 28.5265 3.43916 28.0697 3.53996 27.6237C3.63717 26.7964 3.65877 25.9475 3.69117 25.0986L3.71277 23.9656L3.79918 16.7465L3.80998 15.2214L3.83158 12.6855L3.82078 9.87628L3.79918 9.04897L3.76678 5.44481L3.72358 3.01325C3.65877 2.53486 3.57236 2.02049 3.12234 1.71835C2.5895 1.35865 1.94506 1.28311 1.31141 1.16441C1.21421 1.12125 1.1278 1.02413 1.1062 0.923417C1.0846 0.83709 1.117 0.739972 1.1494 0.660839C1.22501 0.531348 1.36902 0.531348 1.49863 0.509766C2.78392 0.542138 4.0512 0.488184 5.35809 0.520557L7.75585 0.531347L12.9006 0.520557L14.2291 0.509766C14.3587 0.531348 14.4595 0.617675 14.5135 0.729181L14.5459 0.858672L14.6755 3.48446L14.8915 6.5563C14.8987 6.70377 14.8987 6.84401 14.7799 6.94474Z" fill="#818181"/>
<path d="M62.0642 7.74522C66.0136 14.5795 64.091 23.928 55.922 28.4566C48.5272 32.5571 38.8533 30.2911 34.875 23.4064C30.2199 15.3528 34.0506 6.63021 41.0206 2.60876C48.4155 -1.65724 58.0462 0.795895 62.0642 7.74522ZM37.7912 21.6943C40.8875 27.2336 48.61 31.8773 55.4756 27.6581C62.6146 23.2733 61.8983 13.8097 59.1264 9.38908C54.7375 2.39295 47.5515 -0.211256 41.4563 3.38931C35.7535 6.75606 34.1406 15.1586 37.7912 21.6943Z" fill="#818181"/>
</svg>
