<svg width="9" height="11" viewBox="0 0 9 11" fill="none" xmlns="http://www.w3.org/2000/svg">
<path d="M4.5 0C3.30694 0.00129975 2.16313 0.457014 1.31951 1.26717C0.475894 2.07732 0.00135344 3.17575 0 4.32147C0 8.01928 4.09091 10.812 4.26528 10.9289C4.33407 10.9752 4.41602 11 4.5 11C4.58398 11 4.66593 10.9752 4.73472 10.9289C4.90909 10.812 9 8.01928 9 4.32147C8.99865 3.17575 8.52411 2.07732 7.68049 1.26717C6.83687 0.457014 5.69306 0.00129975 4.5 0ZM4.5 2.75003C4.82364 2.75003 5.14002 2.84219 5.40911 3.01486C5.67821 3.18754 5.88795 3.43296 6.0118 3.72011C6.13566 4.00725 6.16806 4.32322 6.10492 4.62805C6.04178 4.93288 5.88593 5.21288 5.65708 5.43265C5.42823 5.65242 5.13666 5.80209 4.81924 5.86272C4.50182 5.92336 4.1728 5.89224 3.87379 5.7733C3.57478 5.65436 3.31922 5.45294 3.13941 5.19452C2.95961 4.9361 2.86364 4.63227 2.86364 4.32147C2.86364 3.9047 3.03604 3.505 3.34292 3.21029C3.64979 2.91559 4.06601 2.75003 4.5 2.75003Z" fill="black"/>
</svg>
